<svg width="48" height="48" viewBox="0 0 48 48" fill="none" xmlns="http://www.w3.org/2000/svg">
<path d="M24 13C19.814 13 14.3809 14.0488 14.3809 14.0488L14.3672 14.0645C12.4607 14.3694 11 16.0076 11 18V24V24.002V30V30.002C11.0019 30.9535 11.3429 31.8732 11.9618 32.5959C12.5807 33.3187 13.437 33.7971 14.377 33.9453L14.3809 33.9512C14.3809 33.9512 19.814 35.002 24 35.002C28.186 35.002 33.6191 33.9512 33.6191 33.9512L33.6211 33.9492C34.562 33.8013 35.4193 33.3225 36.0387 32.5989C36.6581 31.8753 36.999 30.9544 37 30.002V30V24.002V24V18C36.9986 17.0481 36.6578 16.128 36.0388 15.4048C35.4199 14.6817 34.5633 14.203 33.623 14.0547L33.6191 14.0488C33.6191 14.0488 28.186 13 24 13ZM21 19.3984L29 24L21 28.6016V19.3984Z" fill="white"/>
<circle cx="24" cy="24" r="23" stroke="white" stroke-width="2"/>
</svg>
