<svg width="48" height="48" viewBox="0 0 48 48" fill="none" xmlns="http://www.w3.org/2000/svg">
<path d="M37.001 16.501C36.044 16.926 35.016 17.212 33.937 17.341C35.039 16.681 35.884 15.636 36.282 14.39C35.252 15.001 34.11 15.445 32.894 15.685C31.921 14.648 30.535 14 29.001 14C26.055 14 23.667 16.389 23.667 19.334C23.667 19.752 23.715 20.16 23.805 20.549C19.372 20.327 15.442 18.203 12.81 14.975C12.352 15.763 12.089 16.679 12.089 17.658C12.089 19.508 13.03 21.141 14.461 22.097C13.587 22.069 12.764 21.829 12.045 21.43C12.045 21.453 12.045 21.474 12.045 21.497C12.045 24.082 13.883 26.238 16.324 26.727C15.877 26.849 15.405 26.914 14.918 26.914C14.575 26.914 14.24 26.88 13.915 26.819C14.594 28.938 16.564 30.481 18.898 30.524C17.073 31.955 14.773 32.808 12.273 32.808C11.843 32.808 11.418 32.783 11 32.733C13.361 34.246 16.164 35.129 19.177 35.129C28.989 35.129 34.353 27.001 34.353 19.952C34.353 19.721 34.348 19.491 34.338 19.262C35.381 18.509 36.286 17.57 37.001 16.501Z" fill="white"/>
<circle cx="24" cy="24" r="23" stroke="white" stroke-width="2"/>
</svg>
