<svg width="48" height="48" viewBox="0 0 48 48" fill="none" xmlns="http://www.w3.org/2000/svg">
<path d="M24 10C16.2685 10 10 16.2685 10 24C10 31.0187 15.1707 36.8147 21.907 37.8273V27.71H18.4432V24.0303H21.907V21.5815C21.907 17.5273 23.8822 15.7482 27.2515 15.7482C28.865 15.7482 29.719 15.8683 30.1227 15.922V19.1338H27.8243C26.394 19.1338 25.8947 20.4907 25.8947 22.019V24.0303H30.0865L29.5183 27.71H25.8947V37.8565C32.7278 36.9302 38 31.0875 38 24C38 16.2685 31.7315 10 24 10Z" fill="white"/>
<circle cx="24" cy="24" r="23" stroke="white" stroke-width="2"/>
</svg>
