<svg width="48" height="48" viewBox="0 0 48 48" fill="none" xmlns="http://www.w3.org/2000/svg">
<path d="M24 11C16.8208 11 11 16.8208 11 24C11 29.5077 14.4266 34.2115 19.2626 36.1052C19.1488 35.0771 19.0459 33.4987 19.3081 32.3763C19.5442 31.3623 20.8323 25.9143 20.8323 25.9143C20.8323 25.9143 20.4434 25.1353 20.4434 23.9848C20.4434 22.1768 21.491 20.828 22.7953 20.828C23.9047 20.828 24.4398 21.6611 24.4398 22.6588C24.4398 23.7747 23.7303 25.4419 23.363 26.9868C23.0564 28.2813 24.0119 29.3365 25.2881 29.3365C27.5988 29.3365 29.3744 26.9001 29.3744 23.3836C29.3744 20.2712 27.1384 18.0947 23.9448 18.0947C20.2463 18.0947 18.0753 20.8692 18.0753 23.7368C18.0753 24.8537 18.5053 26.0518 19.0427 26.704C19.1488 26.8329 19.164 26.9456 19.1326 27.0767C19.034 27.4873 18.8152 28.3702 18.7718 28.5511C18.7155 28.7894 18.5833 28.8393 18.3374 28.7244C16.7135 27.9683 15.6984 25.5947 15.6984 23.688C15.6984 19.5876 18.6776 15.8208 24.2882 15.8208C28.7981 15.8208 32.3027 19.034 32.3027 23.3294C32.3027 27.8101 29.4773 31.4154 25.5568 31.4154C24.2394 31.4154 23.0012 30.7307 22.5776 29.9226C22.5776 29.9226 21.9254 32.4045 21.7673 33.0133C21.4737 34.1422 20.6818 35.5581 20.1509 36.4215C21.3675 36.7963 22.6599 37 24 37C31.1793 37 37 31.1793 37 24C37 16.8208 31.1793 11 24 11Z" fill="white"/>
<circle cx="24" cy="24" r="23" stroke="white" stroke-width="2"/>
</svg>
