<svg width="86" height="86" viewBox="0 0 86 86" fill="none" xmlns="http://www.w3.org/2000/svg">
<path d="M76.0622 14.3811C75.1067 11.5622 72.4311 9.55556 69.2778 9.55556H57.3333V0H28.6667V9.55556H16.7222C13.5689 9.55556 10.9411 11.5622 9.93778 14.3811L0 43V81.2222C0 83.85 2.15 86 4.77778 86H9.55556C12.1833 86 14.3333 83.85 14.3333 81.2222V76.4444H71.6667V81.2222C71.6667 83.85 73.8167 86 76.4444 86H81.2222C83.85 86 86 83.85 86 81.2222V43L76.0622 14.3811ZM16.7222 62.1111C12.7567 62.1111 9.55556 58.91 9.55556 54.9444C9.55556 50.9789 12.7567 47.7778 16.7222 47.7778C20.6878 47.7778 23.8889 50.9789 23.8889 54.9444C23.8889 58.91 20.6878 62.1111 16.7222 62.1111ZM69.2778 62.1111C65.3122 62.1111 62.1111 58.91 62.1111 54.9444C62.1111 50.9789 65.3122 47.7778 69.2778 47.7778C73.2433 47.7778 76.4444 50.9789 76.4444 54.9444C76.4444 58.91 73.2433 62.1111 69.2778 62.1111ZM9.55556 38.2222L16.7222 16.7222H69.2778L76.4444 38.2222H9.55556Z" fill="white"/>
</svg>
