<svg width="50" height="50" viewBox="0 0 50 50" fill="none" xmlns="http://www.w3.org/2000/svg">
<path d="M25 50L24.3006 49.9904C10.8236 49.6196 9.99583e-07 38.5661 2.18557e-06 25C3.38982e-06 11.225 11.2 -3.392e-06 25 -2.18557e-06C38.775 -9.81321e-07 50 11.225 50 25C50 38.8 38.775 50 25 50ZM20.05 35C20.8 35.75 21.975 35.75 22.7 35L31.425 26.325C31.775 25.975 31.975 25.5 31.975 25C31.975 24.5 31.775 24.025 31.425 23.675L22.7 15C22.35 14.625 21.875 14.45 21.4 14.45C20.9 14.45 20.425 14.625 20.05 15C19.325 15.75 19.325 16.925 20.075 17.65L27.45 25L20.075 32.35C19.325 33.075 19.325 34.275 20.05 35Z" fill="white"/>
</svg>
