<svg width="50" height="50" viewBox="0 0 50 50" fill="none" xmlns="http://www.w3.org/2000/svg">
<path d="M25 0L25.6994 0.00961052C39.1764 0.380408 50 11.4339 50 25C50 38.775 38.8 50 25 50C11.225 50 0 38.775 0 25C0 11.2 11.225 0 25 0ZM29.95 15C29.2 14.25 28.025 14.25 27.3 15L18.575 23.675C18.225 24.025 18.025 24.5 18.025 25C18.025 25.5 18.225 25.975 18.575 26.325L27.3 35C27.65 35.375 28.125 35.55 28.6 35.55C29.1 35.55 29.575 35.375 29.95 35C30.675 34.25 30.675 33.075 29.925 32.35L22.55 25L29.925 17.65C30.675 16.925 30.675 15.725 29.95 15Z" fill="white"/>
</svg>
