<svg width="235" height="59" viewBox="0 0 235 59" fill="none" xmlns="http://www.w3.org/2000/svg">
<path fill-rule="evenodd" clip-rule="evenodd" d="M27.523 1.25C26.99 1.938 24.605 6.149 22.225 10.608C17.933 18.647 17.82 18.758 8.948 23.631C4.026 26.334 0 28.975 0 29.5C0 30.025 4.036 32.671 8.97 35.381L17.94 40.308L22.655 49.132C25.249 53.986 27.754 58.194 28.221 58.483C28.689 58.772 31.361 54.763 34.158 49.574L39.244 40.139L48.746 35.001C53.973 32.176 58.249 29.7 58.249 29.5C58.249 29.3 53.973 26.824 48.746 23.999L39.244 18.861L34.16 9.43C31.364 4.244 28.945 0 28.785 0C28.625 0 28.057 0.563 27.523 1.25ZM36.643 17.28C37.494 18.808 39.441 20.755 40.969 21.606C42.498 22.457 46.419 24.646 49.683 26.469L55.618 29.785L49.183 33.019C45.644 34.798 41.536 37.11 40.053 38.156C38.571 39.203 35.445 43.648 33.108 48.034C30.771 52.421 28.531 55.67 28.13 55.255C27.73 54.84 25.537 51.029 23.258 46.787C19.19 39.213 18.955 38.987 10.262 34.273L1.408 29.472L10.26 24.714L19.111 19.955L23.811 11.334L28.51 2.713L31.803 8.606C33.614 11.848 35.792 15.751 36.643 17.28ZM24.385 14.099C20.609 20.948 19.78 21.784 13.277 25.309C9.412 27.403 6.249 29.289 6.249 29.5C6.249 29.711 9.412 31.597 13.277 33.691C19.751 37.2 20.62 38.071 24.303 44.75C26.502 48.737 28.482 52 28.704 52C28.926 52 30.827 48.804 32.929 44.897C36.466 38.321 37.286 37.499 43.999 33.807C47.986 31.614 51.249 29.641 51.249 29.422C51.249 29.204 48.109 27.444 44.271 25.511C40.433 23.578 36.672 20.985 35.912 19.749C35.152 18.512 33.166 15.07 31.499 12.099L28.466 6.698L24.385 14.099ZM32.098 23.393C29.253 25.194 28.906 25.207 25.617 23.638L22.142 21.981L25.35 15.962L28.558 9.943L31.83 15.716L35.103 21.49L32.098 23.393ZM66.203 18.086C65.589 19.233 65.366 20.45 65.706 20.79C66.047 21.131 67.555 20.946 69.058 20.378C70.56 19.811 72.343 19.531 73.019 19.757C73.876 20.042 74.249 23.023 74.249 29.583C74.249 38.333 74.391 39 76.249 39C78.092 39 78.249 38.333 78.249 30.5V22H82.214C85.11 22 86.458 21.479 87.214 20.066C87.783 19.002 88.249 17.652 88.249 17.066C88.249 16.48 87.511 16 86.609 16C85.707 16 84.461 16.695 83.84 17.545C82.821 18.939 82.347 18.939 79.011 17.545C76.977 16.695 73.515 16 71.316 16C68.288 16 67.049 16.506 66.203 18.086ZM92.249 18.535C92.249 19.93 91.522 22.18 90.634 23.535C89.147 25.804 89.147 26.196 90.634 28.465C91.522 29.82 92.249 32.745 92.249 34.965C92.249 38.333 92.579 39 94.249 39C95.916 39 96.249 38.333 96.249 35C96.249 32.111 96.666 31 97.749 31C98.574 31 99.249 31.449 99.249 31.997C99.249 32.546 100.876 34.796 102.865 36.997C104.854 39.199 107.329 41 108.365 41C109.401 41 110.249 40.377 110.249 39.615C110.249 38.853 109.158 37.515 107.825 36.642C106.492 35.768 105.119 34.164 104.774 33.078C104.365 31.789 104.859 30.39 106.198 29.051C107.468 27.781 108.249 25.695 108.249 23.573C108.249 21.061 107.545 19.591 105.614 18.073C103.692 16.561 101.528 16 97.614 16C92.538 16 92.249 16.137 92.249 18.535ZM115.249 27.5C115.249 38.333 115.365 39 117.249 39C119.133 39 119.249 38.333 119.249 27.5C119.249 16.667 119.133 16 117.249 16C115.365 16 115.249 16.667 115.249 27.5ZM124.249 18C124.249 19.1 124.699 20 125.249 20C125.845 20 126.249 23.833 126.249 29.5C126.249 38.333 126.389 39 128.249 39C129.868 39 130.249 38.333 130.249 35.5C130.249 32.035 130.292 32 134.614 32C137.516 32 139.863 31.305 141.614 29.927C143.507 28.438 144.249 26.928 144.249 24.562C144.249 22.745 143.32 20.089 142.176 18.635C140.249 16.184 139.549 16 132.176 16C124.916 16 124.249 16.168 124.249 18ZM155.269 21.947C154.024 25.276 152.805 28 152.561 28C152.317 28 151.313 27.57 150.33 27.043C148.798 26.223 148.61 26.439 149.015 28.558C149.275 29.917 149.857 31.258 150.308 31.537C150.759 31.816 150.475 33.609 149.675 35.522C148.244 38.947 148.26 39 150.695 39C152.703 39 153.388 38.267 154.334 35.111C155.349 31.723 155.964 31.146 159.1 30.637C161.081 30.315 163.162 30.51 163.725 31.07C164.288 31.63 165.237 33.531 165.833 35.294C166.536 37.374 167.678 38.612 169.083 38.82C170.274 38.995 171.246 38.77 171.242 38.32C171.239 37.869 169.287 32.775 166.905 27C163.156 17.912 162.235 16.459 160.053 16.197C157.802 15.927 157.29 16.543 155.269 21.947ZM173.249 18C173.249 19.1 173.699 20 174.249 20C174.845 20 175.249 23.833 175.249 29.5V39H182.026C186.542 39 189.546 38.48 191.026 37.443C192.486 36.421 193.249 34.853 193.249 32.878C193.249 31.223 192.712 28.886 192.055 27.684C191.399 26.483 190.986 24.227 191.139 22.671C191.298 21.048 190.675 19.023 189.678 17.921C188.263 16.358 186.569 16 180.594 16C173.916 16 173.249 16.182 173.249 18ZM198.249 27.5V39H206.249C212.693 39 214.249 38.708 214.249 37.5C214.249 36.333 212.916 36 208.249 36H202.249V26C202.249 16.667 202.116 16 200.249 16C198.365 16 198.249 16.667 198.249 27.5ZM218.249 27.5V39H226.249C232.693 39 234.249 38.708 234.249 37.5C234.249 36.333 232.916 36 228.249 36H222.249V32.5C222.249 29.083 222.344 29 226.249 29C229.063 29 230.249 28.573 230.249 27.56C230.249 26.619 228.952 26.013 226.499 25.81C223.075 25.527 222.722 25.217 222.436 22.25L222.122 19H228.186C232.909 19 234.249 18.668 234.249 17.5C234.249 16.292 232.693 16 226.249 16H218.249V27.5ZM102.993 21.203C103.684 21.776 104.249 22.81 104.249 23.5C104.249 24.19 103.687 25.222 102.999 25.792C102.097 26.54 100.984 26.17 98.999 24.462C97.487 23.161 96.249 21.351 96.249 20.44C96.249 19.133 96.828 18.929 98.993 19.472C100.503 19.851 102.303 20.63 102.993 21.203ZM137.684 19.975C139.481 20.659 140.249 21.689 140.249 23.419C140.249 24.835 139.302 26.55 138.026 27.443C136.804 28.299 134.554 29 133.026 29C130.409 29 130.249 28.745 130.249 24.583C130.249 21.986 130.764 19.959 131.499 19.662C132.187 19.385 133.282 19.122 133.934 19.079C134.586 19.036 136.273 19.439 137.684 19.975ZM185.808 20.5C187.729 21.985 187.729 22.015 185.808 23.5C184.74 24.325 183.278 25 182.558 25C181.838 25 181.249 25.604 181.249 26.342C181.249 27.08 183.049 28.223 185.249 28.882C188.169 29.757 189.249 30.616 189.249 32.065C189.249 33.275 188.248 34.43 186.684 35.025C185.273 35.561 183.023 36 181.684 36C179.309 36 179.249 35.805 179.249 28.083C179.249 22.686 179.647 20.006 180.499 19.662C181.187 19.385 182.225 19.122 182.808 19.079C183.39 19.036 184.74 19.675 185.808 20.5ZM162.249 26.191C162.249 26.636 161.134 27 159.77 27C157.467 27 157.375 26.817 158.47 24.413C159.569 22.003 159.738 21.948 160.949 23.604C161.664 24.582 162.249 25.746 162.249 26.191ZM24.069 24.83L26.39 26.615L23.579 27.895C20.871 29.129 20.839 29.227 22.7 30.588C23.762 31.365 24.995 32 25.44 32C25.885 32 26.249 32.395 26.249 32.879C26.249 33.362 25.001 34.274 23.477 34.906C21.051 35.91 19.98 35.662 14.917 32.92C11.734 31.196 9.303 29.612 9.515 29.401C9.726 29.19 12.34 27.671 15.324 26.026C18.308 24.382 20.974 23.038 21.249 23.04C21.524 23.043 22.793 23.848 24.069 24.83ZM42.397 26.302L48.046 29.543L42.208 32.778C37.123 35.594 36.039 35.861 33.809 34.845C32.401 34.204 31.249 33.409 31.249 33.08C31.249 32.751 32.238 31.864 33.446 31.109L35.643 29.737L33.304 27.844C32.018 26.802 31.142 25.803 31.357 25.622C31.573 25.442 32.649 24.792 33.749 24.178C34.849 23.563 35.974 23.061 36.249 23.061C36.524 23.061 39.291 24.519 42.397 26.302ZM96.249 26.5C96.934 27.325 97.251 28 96.953 28C96.656 28 95.701 27.727 94.831 27.393C93.961 27.059 93.249 26.384 93.249 25.893C93.249 25.402 93.644 25 94.127 25C94.609 25 95.564 25.675 96.249 26.5ZM31.054 28.35L33.359 29.629L30.747 30.819C28.782 31.714 27.609 31.728 26.012 30.873C23.956 29.773 23.948 29.693 25.76 28.368C26.789 27.616 27.883 27.016 28.19 27.035C28.498 27.055 29.786 27.646 31.054 28.35ZM31.99 35.75L34.78 37.5L31.619 43.423L28.458 49.347L25.609 43.923C24.042 40.94 22.618 38.191 22.443 37.814C22.268 37.437 23.391 36.443 24.937 35.604C26.484 34.766 28.076 34.062 28.475 34.04C28.874 34.018 30.456 34.787 31.99 35.75Z" fill="black"/>
</svg>
